<svg width="24" height="24" viewBox="0 0 24 24" fill="none" xmlns="http://www.w3.org/2000/svg">
<path d="M23.5 11.4173C23.5 15.5108 22.305 18.5146 20.2928 20.4959C18.2787 22.479 15.3825 23.5 11.8583 23.5C8.35311 23.5 5.52806 22.3408 3.57755 20.2832C1.62434 18.2227 0.499986 15.2103 0.5 11.4173C0.5 8.05681 1.61428 5.34005 3.56171 3.46266C5.511 1.58347 8.34229 0.5 11.8583 0.5C15.3751 0.5 18.2809 1.58358 20.3027 3.46758C22.3209 5.34819 23.5 8.06453 23.5 11.4173Z" fill="#FDF4D7" stroke="#272424"/>
<path d="M16.4051 6.93158C17.4001 7.1999 18.5517 8.00489 18.5517 8.00489" stroke="#272424" stroke-linecap="round"/>
<path d="M7.59494 6.93158C6.59993 7.1999 5.44832 8.00489 5.44832 8.00489" stroke="#272424" stroke-linecap="round"/>
<path d="M9.59961 15.6001C9.79961 16.4001 10.1996 18.0001 11.9996 18.0001C13.7996 18.0001 14.1996 16.2001 14.3996 15.6001" stroke="#272424" stroke-linecap="round" stroke-linejoin="round"/>
<circle cx="8" cy="12" r="1" fill="#272424"/>
<circle cx="16" cy="12" r="1" fill="#272424"/>
</svg>
