<svg width="12" height="12" viewBox="0 0 12 12" fill="none" xmlns="http://www.w3.org/2000/svg">
<path d="M6 6.49995V0.5C6 0.5 8.90095 0.744846 10 1.99999C11.0607 3.21139 11.5 6.5 11.5 6.5L6 6.49995Z" fill="#EE5A45"/>
<path d="M11.5 5.70865C11.5 7.70646 10.9179 9.13747 9.97099 10.0698C9.02222 11.004 7.64376 11.5 5.92913 11.5C4.2336 11.5 2.89085 10.9408 1.97021 9.9696C1.04688 8.99557 0.499993 7.55602 0.5 5.70866C0.5 4.08546 1.03682 2.79586 1.95436 1.91131C2.87378 1.02496 4.22279 0.5 5.92913 0.5C7.63634 0.5 9.0244 1.02538 9.98092 1.91669C10.9338 2.80462 11.5 4.0938 11.5 5.70865Z" stroke="#272424"/>
<path d="M6.00031 4C6.00031 4 5.88316 6.42971 6.00031 6.5C6.0739 6.54415 7.50031 6.5 7.50031 6.5" stroke="#272424" stroke-linecap="round"/>
</svg>
